<?xml version="1.0" encoding="UTF-8"?>
<svg width="95px" height="95px" viewBox="0 0 95 95" version="1.1" xmlns="http://www.w3.org/2000/svg" xmlns:xlink="http://www.w3.org/1999/xlink">
    <!-- Generator: Sketch 43.2 (39069) - http://www.bohemiancoding.com/sketch -->
    <title>brain</title>
    <desc>Created with Sketch.</desc>
    <defs></defs>
    <g id="Hiome.com" stroke="none" stroke-width="1" fill="none" fill-rule="evenodd">
        <g id="features" transform="translate(-67.000000, -3.000000)" fill-rule="nonzero" fill="#EC5188">
            <g id="brain" transform="translate(67.000000, 3.000000)">
                <path d="M29.3754902,52.3655122 C28.0156863,52.8508966 27.2892157,54.3630558 27.7921569,55.7258659 C28.5931373,57.9847703 28.3323529,60.4490297 27.0656863,62.4839106 C25.7990196,64.5187915 23.6941176,65.8255957 21.3098039,66.0869565 L21.2539216,66.0869565 C19.8196078,66.2549742 18.8137255,67.5431098 18.9627451,68.9992631 C19.2235294,70.623434 20.7696078,71.4075166 21.8872549,71.3141734 C25.8735294,70.8847949 29.3941176,68.6818963 31.5176471,65.2655367 C33.6411765,61.8491771 34.0882353,57.7234095 32.7470588,53.9336772 C32.2441176,52.5895357 30.7352941,51.8801277 29.3754902,52.3655122 Z" id="Shape"></path>
                <path d="M33.1568627,25.1279784 L25.4823529,25.1279784 C23.8803922,25.1279784 22.5764706,23.8211742 22.5764706,22.2156718 L22.5764706,21.6556129 C22.5764706,20.1994596 21.4029412,19.0233358 19.95,19.0233358 C18.4970588,19.0233358 17.3235294,20.1994596 17.3235294,21.6556129 L17.3235294,22.1970032 C17.3235294,26.7148121 20.9931373,30.3925325 25.5009804,30.3925325 L33.1568627,30.3925325 C34.7588235,30.3925325 36.0627451,31.6993368 36.0627451,33.3048391 C36.0627451,34.7609924 37.2362745,35.9371162 38.6892157,35.9371162 C40.1421569,35.9371162 41.3156863,34.7609924 41.3156863,33.3048391 C41.3343137,28.7870302 37.6647059,25.1279784 33.1568627,25.1279784 Z" id="Shape"></path>
                <path d="M77.3039216,22.1970032 L77.3039216,21.6556129 C77.3039216,20.1994596 76.1303922,19.0233358 74.677451,19.0233358 C73.2245098,19.0233358 72.0509804,20.1994596 72.0509804,21.6556129 L72.0509804,22.1970032 C72.0509804,23.8025055 70.7470588,25.1093098 69.145098,25.1093098 L61.4705882,25.1093098 C56.9627451,25.1093098 53.2931373,28.7870302 53.2931373,33.3048391 C53.2931373,34.7609924 54.4666667,35.9371162 55.9196078,35.9371162 C57.372549,35.9371162 58.5460784,34.7609924 58.5460784,33.3048391 C58.5460784,31.6993368 59.85,30.3925325 61.4519608,30.3925325 L69.1264706,30.3925325 C73.6529412,30.3925325 77.3039216,26.7148121 77.3039216,22.1970032 Z" id="Shape"></path>
                <path d="M67.5058824,46.7649226 C66.2764706,45.9995087 64.6558824,46.3728814 63.8921569,47.6050111 C63.1284314,48.8371408 63.5009804,50.4613117 64.7303922,51.2267256 C66.7607843,52.4961926 68.0833333,54.5870793 68.3441176,56.9766642 C68.604902,59.3662491 67.7852941,61.6998281 66.0715686,63.3986735 L66.0343137,63.4360108 C65.0098039,64.4627856 65.0284314,66.1056252 66.0529412,67.1323999 C67.2637255,68.2525178 68.9588235,67.8978138 69.7784314,67.1323999 C72.6284314,64.3134365 74.0254902,60.3930238 73.5784314,56.3979366 C73.1313725,52.4028494 70.9147059,48.8931466 67.5058824,46.7649226 Z" id="Shape"></path>
                <path d="M94.627451,47.4183247 C94.627451,41.2950135 91.0137255,35.9184476 85.5745098,33.3795136 C89.2068627,28.189634 89.3745098,21.1328912 85.5745098,15.7376566 C82.5754902,11.4812085 77.6205882,8.94227463 72.2931373,8.94227463 C71.4735294,8.94227463 70.6539216,8.99828052 69.8529412,9.12896094 C68.2882353,5.37656595 65.2147059,2.38958487 61.2284314,0.933431589 C56.2735294,-0.821419799 50.7970588,0.0186686318 47.3137255,2.66961435 C43.5137255,1.21430643e-17 38.95,-0.765413903 33.3990196,0.933431589 C29.4127451,2.38958487 26.3205882,5.35789732 24.7745098,9.12896094 C23.9735294,9.01694915 23.1539216,8.94227463 22.3343137,8.94227463 C17.0254902,8.94227463 12.0519608,11.4812085 9.05294118,15.7376566 C5.25294118,21.1328912 5.42058824,28.189634 9.05294118,33.3795136 C3.61372549,35.9184476 0,41.2763449 0,47.4183247 C0,53.8776713 4.09803922,59.4969295 9.94705882,61.8491771 C7.05980392,65.8629329 6.33333333,71.183493 8.34509804,75.9066568 C11.6235294,82.9073938 17.9754902,85.5956767 24.4019608,84.8302628 C26.6931373,90.9909113 31.8529412,94.6312945 38.6519608,94.8553181 L38.6519608,94.8553181 C41.7813725,94.8553181 44.7803922,93.9218865 47.295098,92.1857038 C49.8098039,93.9032179 52.8088235,94.8553181 55.9382353,94.8553181 C62.2529412,94.8553181 68.3813725,90.6735446 70.1882353,84.8302628 C76.9872549,85.7823631 83.8794118,81.6752641 86.245098,75.9066568 C88.2568627,71.183493 87.5303922,65.8629329 84.6431373,61.8491771 C90.5294118,59.4782609 94.627451,53.8776713 94.627451,47.4183247 Z M44.6872549,42.8631786 C44.6872549,44.7860477 43.122549,46.3542127 41.2039216,46.3542127 C39.2852941,46.3542127 37.7205882,44.7860477 37.7205882,42.8631786 C37.7205882,41.4070253 36.5470588,40.2309015 35.0941176,40.2309015 C33.6411765,40.2309015 32.4676471,41.4070253 32.4676471,42.8631786 C32.4676471,47.6983542 36.3980392,51.6187669 41.2039216,51.6187669 C42.4519608,51.6187669 43.6254902,51.357406 44.6872549,50.8906902 L44.6872549,87.5745517 C42.9735294,88.8440187 40.8872549,89.534758 38.6705882,89.534758 L38.6705882,89.534758 C34.0882353,89.4974208 30.5303922,86.9771555 29.245098,82.590027 L33.7529412,78.5202653 C34.3676471,77.978875 35.1872549,77.7361828 35.9882353,77.9042004 C36.7892157,78.0722181 37.4598039,78.5762712 37.8137255,79.3230165 C38.4470588,80.6298207 40.0117647,81.1898796 41.3156863,80.5551462 C42.6196078,79.9204127 43.1784314,78.3522476 42.545098,77.0454434 C41.4647059,74.7865389 39.4529412,73.2183739 36.9941176,72.7329894 C34.5352941,72.247605 32.0764706,72.9196758 30.2137255,74.5998526 L25.0539216,79.2483419 C19.9686275,80.6111521 15.2,78.4269221 13.1509804,73.7971014 C11.4558824,69.8393515 12.8343137,65.2095308 16.4107843,62.6705969 C21.2166667,61.3264554 23.6196078,58.6941783 24.1411765,55.0537951 C24.6068627,51.8801277 23.3029412,48.7437976 20.7137255,46.8395972 C19.5401961,45.9808401 17.9009804,46.2235323 17.0441176,47.3996561 C16.1872549,48.5757799 16.4294118,50.2186195 17.6029412,51.0773766 C18.627451,51.8241218 19.1117647,53.0189143 18.9254902,54.2697126 C18.795098,56.0619013 17.1558824,57.0326701 14.8460784,57.6113977 C9.40686275,57.0513387 5.19705882,52.6455416 5.19705882,47.3623188 C5.19705882,43.1245394 7.86078431,39.446819 11.772549,37.8599853 C13.0764706,41.0709899 16.2058824,43.348563 19.8754902,43.348563 C24.7,43.348563 28.6117647,39.4094817 28.6117647,34.5929747 C28.6117647,33.1368214 27.4382353,31.9606976 25.9852941,31.9606976 C24.5323529,31.9606976 23.3588235,33.1368214 23.3588235,34.5929747 C23.3588235,36.5158438 21.7941176,38.0840088 19.8754902,38.0840088 C17.9568627,38.0840088 16.3921569,36.5158438 16.3921569,34.5929747 L15.3862745,32.5020879 C11.0460784,29.104397 10.1333333,23.167772 13.2813725,18.7246377 C15.2931373,15.868337 18.6460784,14.1694915 22.2598039,14.1694915 C22.8558824,14.1694915 23.4519608,14.2254974 24.0480392,14.3188406 C24.9980392,18.1272415 28.4254902,20.9648735 32.5235294,20.9648735 C37.3480392,20.9648735 41.2598039,17.0257922 41.2598039,12.2092852 C41.2598039,10.7531319 40.0862745,9.57700811 38.6333333,9.57700811 C37.1803922,9.57700811 36.0068627,10.7531319 36.0068627,12.2092852 C36.0068627,14.1321543 34.4421569,15.7003193 32.5235294,15.7003193 C30.7352941,15.7003193 29.2823529,14.3561778 29.077451,12.6199951 C29.7852941,9.50233358 32.0205882,6.98206829 35.1313725,5.84328175 C38.2980392,4.68582658 41.9676471,5.24588553 44.6127451,7.20609187 L44.6127451,42.8631786 L44.6872549,42.8631786 Z M79.2411765,57.7234095 C76.5215686,57.9474331 75.8882353,60.8597396 77.9372549,62.5399165 C81.6813725,65.0415131 83.1529412,69.7833456 81.4205882,73.8157701 C79.6509804,78.4455908 73.6343137,80.6298207 69.5176471,79.2670106 L64.3578431,74.6185212 C62.495098,72.9383444 60.0362745,72.2662736 57.577451,72.7516581 C55.1372549,73.2370425 53.1068627,74.8052076 52.0264706,77.064112 C51.3931373,78.3709162 51.9519608,79.9577499 53.2558824,80.5738148 C54.5598039,81.1898796 56.1431373,80.6484893 56.7578431,79.3416851 C57.1117647,78.5949398 57.7823529,78.0722181 58.5833333,77.9228691 C59.3843137,77.7548514 60.2039216,77.978875 60.8186275,78.5389339 L65.3264706,82.6086957 C64.3392157,86.6597887 60.4647059,89.4414149 55.9009804,89.5534267 C53.7029412,89.5534267 51.5980392,88.8626873 49.8843137,87.5932203 L49.8843137,57.7420781 C49.8843137,55.819209 51.4490196,54.251044 53.3676471,54.251044 C55.2862745,54.251044 56.8509804,55.819209 56.8509804,57.7420781 C56.8509804,59.1982314 58.0245098,60.3743552 59.477451,60.3743552 C60.9303922,60.3743552 62.1039216,59.1982314 62.1039216,57.7420781 C62.1039216,52.9069025 58.1921569,48.9864898 53.3676471,48.9864898 C52.1196078,48.9864898 50.9460784,49.2478507 49.8843137,49.7145664 L49.8843137,7.24342913 C52.5294118,5.2832228 56.1990196,4.72316384 59.3843137,5.88061901 C62.4764706,7.01940555 64.7303922,9.53967084 65.4382353,12.6573324 C65.2333333,14.3935151 63.7803922,15.7376566 61.9921569,15.7376566 C60.0735294,15.7376566 58.5088235,14.1694915 58.5088235,12.2466225 C58.5088235,10.7904692 57.3352941,9.61434537 55.8823529,9.61434537 C54.4294118,9.61434537 53.2558824,10.7904692 53.2558824,12.2466225 C53.2558824,17.0817981 57.1676471,21.0022108 61.9921569,21.0022108 C66.0901961,21.0022108 69.5176471,18.1645787 70.4676471,14.3561778 C71.0637255,14.2628347 71.6598039,14.2068288 72.2558824,14.2068288 C75.8696078,14.2068288 79.222549,15.9056743 81.2343137,18.7619749 C84.1029412,22.8317367 83.5813725,28.0962908 80.1911765,31.587325 C78.5333333,31.3072955 76.8196078,31.4939818 75.2362745,32.1847212 C71.4176471,33.7528863 68.8843137,38.6253992 70.7098039,43.7219356 C71.5480392,45.7941538 73.1127451,47.5676738 76.4843137,48.5571113 C77.527451,48.5571113 78.5333333,47.9223778 78.9245098,46.8769344 C79.4647059,45.5327929 78.7941176,44.0019651 77.4343137,43.4605748 C76.5588235,43.1245394 75.8882353,42.4524687 75.5156863,41.6123803 C74.845098,39.5028249 75.4970588,37.9906657 77.322549,37.0198968 C77.9372549,36.758536 78.6264706,36.6651928 79.2784314,36.7772046 C79.595098,36.9825596 79.9303922,37.1505773 80.3215686,37.2252518 C85.5372549,38.0653402 89.3186275,42.3591255 89.3186275,47.3996561 C89.3745098,52.8508966 84.922549,57.3687055 79.2411765,57.7234095 Z" id="Shape"></path>
            </g>
        </g>
    </g>
</svg>