<?xml version="1.0" encoding="UTF-8"?>
<svg width="94px" height="84px" viewBox="0 0 94 84" version="1.1" xmlns="http://www.w3.org/2000/svg" xmlns:xlink="http://www.w3.org/1999/xlink">
    <!-- Generator: Sketch 43.2 (39069) - http://www.bohemiancoding.com/sketch -->
    <title>connected home</title>
    <desc>Created with Sketch.</desc>
    <defs></defs>
    <g id="Hiome.com" stroke="none" stroke-width="1" fill="none" fill-rule="evenodd">
        <g id="features" transform="translate(-630.000000, -9.000000)" fill-rule="nonzero" fill="#ED9B40">
            <g id="connected-home" transform="translate(630.000000, 9.000000)">
                <path d="M48.414,0.586 C47.633,-0.195 46.367,-0.195 45.586,0.586 L0.586,45.586 C0.014,46.158 -0.157,47.018 0.152,47.765 C0.462,48.513 1.191,49 2,49 L15,49 L15,82 C15,83.104 15.896,84 17,84 L77,84 C78.104,84 79,83.104 79,82 L79,49 L92,49 C92.809,49 93.538,48.513 93.848,47.765 C94.158,47.018 93.987,46.158 93.414,45.586 L48.414,0.586 Z M77,45 C75.896,45 75,45.896 75,47 L75,80 L19,80 L19,47 C19,45.896 18.104,45 17,45 L6.828,45 L47,4.829 L87.172,45 L77,45 Z" id="Shape"></path>
                <path d="M38.515,63.728 C37.734,64.509 37.734,65.775 38.515,66.556 C39.296,67.337 40.562,67.337 41.343,66.556 C44.462,63.437 49.538,63.437 52.657,66.556 C53.048,66.947 53.559,67.142 54.071,67.142 C54.583,67.142 55.094,66.947 55.485,66.556 C56.266,65.775 56.266,64.509 55.485,63.727 C50.806,59.05 43.192,59.049 38.515,63.728 Z" id="Shape"></path>
                <path d="M31.443,56.657 C30.662,57.438 30.662,58.704 31.443,59.485 C32.224,60.266 33.49,60.266 34.271,59.485 C41.291,52.466 52.71,52.468 59.728,59.485 C60.119,59.876 60.63,60.071 61.142,60.071 C61.654,60.071 62.165,59.876 62.556,59.485 C63.337,58.704 63.337,57.438 62.556,56.657 C53.979,48.08 40.022,48.079 31.443,56.657 Z" id="Shape"></path>
                <path d="M24.373,49.586 C23.592,50.367 23.592,51.633 24.373,52.414 C25.154,53.195 26.42,53.195 27.201,52.414 C32.489,47.125 39.52,44.213 47,44.213 C54.48,44.213 61.511,47.126 66.799,52.414 C67.189,52.805 67.701,53 68.213,53 C68.725,53 69.236,52.805 69.627,52.414 C70.408,51.633 70.408,50.367 69.627,49.586 C63.584,43.542 55.548,40.213 47,40.213 C38.452,40.213 30.416,43.542 24.373,49.586 Z" id="Shape"></path>
                <path d="M47.003,69.713 L46.992,69.713 C45.612,69.713 44.498,70.832 44.498,72.213 C44.498,73.594 45.622,74.713 47.003,74.713 C48.384,74.713 49.503,73.594 49.503,72.213 C49.503,70.832 48.384,69.713 47.003,69.713 Z" id="Shape"></path>
            </g>
        </g>
    </g>
</svg>