<?xml version="1.0" encoding="UTF-8"?>
<svg width="440px" height="337px" viewBox="0 0 440 337" version="1.1" xmlns="http://www.w3.org/2000/svg" xmlns:xlink="http://www.w3.org/1999/xlink">
    <!-- Generator: Sketch 43.2 (39069) - http://www.bohemiancoding.com/sketch -->
    <title>no cloud/5x</title>
    <desc>Created with Sketch.</desc>
    <defs></defs>
    <g id="no-cloud-svg" stroke="none" stroke-width="1" fill="none" fill-rule="evenodd">
        <g id="no-cloud/5x" transform="translate(0.000000, -1.000000)">
            <path d="M270,14 C229.855685,14 195.38852,35.23455 174.84375,66.5 C160.49027,52.7373 141.421845,44 120,44 C75.935645,44 40,79.9357 40,124 C40,131.0313 41.256265,137.63665 42.96875,144.15625 C17.7247375,157.62475 0,183.4775 0,214 C0,258.0645 35.935665,294 80,294 L345,294 C397.34863,294 440,251.3485 440,199 C440,160.452 416.564115,127.761 383.4375,112.90625 C375.56743,57.08425 327.905845,14 270,14 Z M270,34 C319.64092,34 360.1218,71.68885 364.53125,120.09375 C364.848141,123.995889 367.412756,127.354313 371.09375,128.6875 C399.652005,139.2664 420,166.645 420,199 C420,240.5395 386.53977,274 345,274 L80,274 C46.744435,274 20,247.2555 20,214 C20,188.5195 35.83211,166.8075 58.125,158.0625 C63.2345435,156.094369 65.811475,150.383331 63.90625,145.25 C61.385665,138.6301 60,131.56635 60,124 C60,90.7445 86.744455,64 120,64 C139.75715,64 157.161985,73.5119 168.125,88.21875 C170.215175,90.9551945 173.566083,92.4239189 176.99481,92.1064442 C180.423537,91.7889695 183.447802,89.7299513 185,86.65625 C200.571145,55.4282 232.672405,34 270,34 Z" id="Cloud" fill="#000000" fill-rule="nonzero" opacity="0.5"></path>
            <g id="red-x" stroke-width="1" fill-rule="evenodd" transform="translate(52.000000, 1.000000)" fill="#D0011B">
                <path d="M8.01512603,43.374625 L293.887322,329.401359 C303.647791,339.167104 319.476915,339.171382 329.24266,329.410913 C339.008405,319.650444 339.012683,303.82132 329.252214,294.055575 L43.3800175,8.02884089 C33.6195487,-1.73690422 17.7904248,-1.74118155 8.02467971,8.01928722 C-1.7410654,17.779756 -1.74534273,33.6088799 8.01512603,43.374625 Z" id="Line" fill-rule="nonzero"></path>
                <path d="M297.455194,8.02884089 L11.5829971,294.055575 C1.82252832,303.82132 1.82680564,319.650444 11.5925508,329.410913 C21.3582959,339.171382 37.1874198,339.167104 46.9478885,329.401359 L332.820085,43.374625 C342.580554,33.6088799 342.576276,17.779756 332.810531,8.01928722 C323.044786,-1.74118155 307.215662,-1.73690422 297.455194,8.02884089 Z" id="Line" fill-rule="nonzero"></path>
            </g>
        </g>
    </g>
</svg>