<?xml version="1.0" encoding="UTF-8"?>
<svg width="80px" height="100px" viewBox="0 0 80 100" version="1.1" xmlns="http://www.w3.org/2000/svg" xmlns:xlink="http://www.w3.org/1999/xlink">
    <!-- Generator: Sketch 43.2 (39069) - http://www.bohemiancoding.com/sketch -->
    <title>snap</title>
    <desc>Created with Sketch.</desc>
    <defs></defs>
    <g id="Hiome.com" stroke="none" stroke-width="1" fill="none" fill-rule="evenodd">
        <g id="features" transform="translate(-356.000000, -1.000000)" fill-rule="nonzero" fill="#433070">
            <g id="snap" transform="translate(356.000000, 0.000000)">
                <path d="M23.194,91.645 C28.362,89.061 29.92,86.377 29.228,81.182 C32.222,81.528 34.911,80.881 37.043,78.648 C39.186,76.404 39.796,73.723 39.214,70.865 C40.704,70.664 42.199,70.673 43.555,70.243 C49.574,68.333 51.39,60.839 46.924,56.371 C44.111,53.556 41.181,50.857 38.297,48.114 C30.649,40.84 22.998,33.57 15.348,26.298 C14.343,25.343 13.31,24.416 12.34,23.427 C10.025,21.067 9.985,17.412 12.214,15.073 C14.434,12.744 18.12,12.569 20.561,14.815 C24.214,18.176 27.788,21.623 31.393,25.036 C36.654,30.017 41.91,35.006 47.176,39.981 C48.616,41.341 50.212,42.474 52.061,43.236 C54.58,44.274 56.915,43.977 58.912,42.131 C59.917,41.202 60.816,40.107 61.555,38.954 C63.291,36.247 64.827,33.41 66.584,30.717 C68.956,27.08 73.766,26.395 77.158,29.096 C79.952,31.321 80.61,35.284 78.669,38.541 C75.923,43.149 73.137,47.733 70.366,52.327 C69.004,54.586 67.655,56.853 66.26,59.092 C65.883,59.696 65.885,60.175 66.202,60.813 C67.494,63.413 68.71,66.05 69.978,68.662 C74.164,77.281 70.974,86.848 62.41,91.077 C56.602,93.944 50.76,96.745 44.885,99.472 C37.251,103.015 28.255,100.208 23.934,93.029 C23.665,92.581 23.439,92.106 23.194,91.645 Z" id="Shape"></path>
                <path d="M14.126,50.416 C15.054,50.433 16.425,50.915 17.548,51.97 C23.414,57.48 29.29,62.981 35.118,68.531 C37.499,70.798 37.536,74.525 35.327,76.876 C33.043,79.306 29.362,79.484 26.893,77.181 C21.76,72.393 16.673,67.555 11.566,62.738 C10.851,62.063 10.111,61.414 9.412,60.723 C7.606,58.936 7.081,56.353 8.03,54.046 C8.93,51.859 11.106,50.42 14.126,50.416 Z" id="Shape"></path>
                <path d="M46.891,63.057 C46.832,64.725 45.732,66.635 43.447,67.675 C41.235,68.681 39.003,68.483 37.164,66.856 C34.42,64.428 31.808,61.849 29.144,59.331 C25.959,56.322 22.771,53.316 19.598,50.295 C17.952,48.728 17.266,46.806 17.779,44.572 C18.844,39.935 24.249,38.328 27.789,41.591 C29.991,43.621 32.142,45.707 34.317,47.767 C37.629,50.902 40.925,54.054 44.261,57.164 C45.75,58.552 46.92,60.065 46.891,63.057 Z" id="Shape"></path>
                <path d="M6.406,63.396 C8.014,63.378 9.425,64.155 10.668,65.336 C14.618,69.092 18.574,72.842 22.529,76.592 C23.339,77.361 24.171,78.107 24.968,78.89 C27.504,81.384 27.623,85.113 25.258,87.528 C22.925,89.911 19.24,89.925 16.707,87.536 C12.06,83.152 7.442,78.736 2.777,74.371 C0.973,72.683 -0.171,70.791 0.342,68.219 C0.921,65.31 3.294,63.379 6.406,63.396 Z" id="Shape"></path>
                <path d="M60.883,21.925 C59.67,21.814 58.918,21.397 58.493,20.509 C58.039,19.561 58.212,18.673 58.878,17.894 C59.135,17.594 59.476,17.358 59.798,17.121 C61.922,15.561 64.041,13.996 66.182,12.46 C67.479,11.529 68.922,11.697 69.739,12.82 C70.582,13.98 70.336,15.359 69.046,16.322 C66.827,17.978 64.592,19.613 62.337,21.219 C61.847,21.568 61.241,21.756 60.883,21.925 Z" id="Shape"></path>
                <path d="M40.945,14.516 C40.944,15.738 40.341,16.652 39.483,16.999 C38.581,17.364 37.367,17.186 36.779,16.406 C34.899,13.912 33.043,11.397 31.271,8.826 C30.52,7.736 30.922,6.338 31.964,5.635 C32.994,4.94 34.413,5.115 35.203,6.164 C37.001,8.552 38.75,10.978 40.486,13.412 C40.757,13.795 40.857,14.298 40.945,14.516 Z" id="Shape"></path>
                <path d="M54.495,16.312 C52.709,16.305 51.669,14.691 52.344,12.895 C52.72,11.895 53.2,10.934 53.632,9.955 C54.37,8.284 55.077,6.599 55.853,4.946 C56.452,3.67 57.63,3.157 58.824,3.555 C60.141,3.994 60.862,5.312 60.301,6.678 C59.133,9.521 57.852,12.319 56.577,15.117 C56.19,15.969 55.414,16.305 54.495,16.312 Z" id="Shape"></path>
                <path d="M48.774,11.721 C48.811,13.448 47.991,14.494 46.635,14.623 C45.308,14.749 44.177,13.813 44.004,12.334 C43.679,9.541 43.383,6.744 43.14,3.943 C43.089,3.353 43.183,2.666 43.454,2.153 C43.931,1.248 44.817,0.862 45.838,1.043 C46.901,1.232 47.642,1.872 47.79,2.974 C48.063,5.008 48.269,7.051 48.498,9.091 C48.602,10.023 48.694,10.956 48.774,11.721 Z" id="Shape"></path>
            </g>
        </g>
    </g>
</svg>