<svg xmlns="http://www.w3.org/2000/svg" xmlns:xlink="http://www.w3.org/1999/xlink" version="1.1" x="0px" y="0px" viewBox="26 -26 100 125" style="enable-background:new 26 -26 100 100;" xml:space="preserve"><style type="text/css">
	.st0{fill-rule:evenodd;clip-rule:evenodd;}
</style><path class="st0" d="M112.5,1.5h-2v24c0,1.7-1.3,3-3,3h-31v15.1c2.8,0.5,5,2.9,5,5.9c0,3.3-2.7,6-6,6s-6-2.7-6-6c0-3,2.2-5.4,5-5.9  V28.5h-31c-1.7,0-3-1.3-3-3v-24h-2c-1.7,0-3-1.3-3-3v-4c0-1.7,1.3-3,3-3h74c1.7,0,3,1.3,3,3v4C115.5,0.2,114.2,1.5,112.5,1.5z   M72.5,49.5c0,1.7,1.3,3,3,3s3-1.3,3-3c0-1.7-1.3-3-3-3S72.5,47.8,72.5,49.5z"/></svg>