<?xml version="1.0" encoding="UTF-8"?>
<svg viewBox="0 0 95 95" version="1.1" xmlns="http://www.w3.org/2000/svg" xmlns:xlink="http://www.w3.org/1999/xlink">
    <!-- Generator: Sketch 43.2 (39069) - http://www.bohemiancoding.com/sketch -->
    <title>Untitled 6</title>
    <desc>Created with Sketch.</desc>
    <defs></defs>
    <g id="Page-1" stroke="none" stroke-width="1" fill="none" fill-rule="evenodd">
        <path d="M29.3754902,52.3550354 C28.0156863,52.8404199 27.2892157,54.352579 27.7921569,55.7153892 C28.5931373,57.9742936 28.3323529,60.438553 27.0656863,62.4734339 C25.7990196,64.5083147 23.6941176,65.815119 21.3098039,66.0764798 L21.2539216,66.0764798 C19.8196078,66.2444975 18.8137255,67.5326331 18.9627451,68.9887864 C19.2235294,70.6129573 20.7696078,71.3970399 21.8872549,71.3036967 C25.8735294,70.8743182 29.3941176,68.6714196 31.5176471,65.25506 C33.6411765,61.8387004 34.0882353,57.7129328 32.7470588,53.9232005 C32.2441176,52.579059 30.7352941,51.869651 29.3754902,52.3550354 Z" id="Shape" fill="#000000" fill-rule="nonzero"></path>
        <path d="M33.1568627,25.1175017 L25.4823529,25.1175017 C23.8803922,25.1175017 22.5764706,23.8106974 22.5764706,22.2051951 L22.5764706,21.6451362 C22.5764706,20.1889829 21.4029412,19.0128591 19.95,19.0128591 C18.4970588,19.0128591 17.3235294,20.1889829 17.3235294,21.6451362 L17.3235294,22.1865265 C17.3235294,26.7043354 20.9931373,30.3820558 25.5009804,30.3820558 L33.1568627,30.3820558 C34.7588235,30.3820558 36.0627451,31.6888601 36.0627451,33.2943624 C36.0627451,34.7505157 37.2362745,35.9266395 38.6892157,35.9266395 C40.1421569,35.9266395 41.3156863,34.7505157 41.3156863,33.2943624 C41.3343137,28.7765535 37.6647059,25.1175017 33.1568627,25.1175017 Z" id="Shape" fill="#000000" fill-rule="nonzero"></path>
        <path d="M77.3039216,22.1865265 L77.3039216,21.6451362 C77.3039216,20.1889829 76.1303922,19.0128591 74.677451,19.0128591 C73.2245098,19.0128591 72.0509804,20.1889829 72.0509804,21.6451362 L72.0509804,22.1865265 C72.0509804,23.7920288 70.7470588,25.098833 69.145098,25.098833 L61.4705882,25.098833 C56.9627451,25.098833 53.2931373,28.7765535 53.2931373,33.2943624 C53.2931373,34.7505157 54.4666667,35.9266395 55.9196078,35.9266395 C57.372549,35.9266395 58.5460784,34.7505157 58.5460784,33.2943624 C58.5460784,31.6888601 59.85,30.3820558 61.4519608,30.3820558 L69.1264706,30.3820558 C73.6529412,30.3820558 77.3039216,26.7043354 77.3039216,22.1865265 Z" id="Shape" fill="#000000" fill-rule="nonzero"></path>
        <path d="M67.5058824,46.7544459 C66.2764706,45.989032 64.6558824,46.3624046 63.8921569,47.5945343 C63.1284314,48.826664 63.5009804,50.450835 64.7303922,51.2162489 C66.7607843,52.4857159 68.0833333,54.5766026 68.3441176,56.9661875 C68.604902,59.3557724 67.7852941,61.6893513 66.0715686,63.3881968 L66.0343137,63.4255341 C65.0098039,64.4523088 65.0284314,66.0951484 66.0529412,67.1219232 C67.2637255,68.2420411 68.9588235,67.8873371 69.7784314,67.1219232 C72.6284314,64.3029598 74.0254902,60.3825471 73.5784314,56.3874599 C73.1313725,52.3923727 70.9147059,48.8826699 67.5058824,46.7544459 Z" id="Shape" fill="#000000" fill-rule="nonzero"></path>
        <path d="M94.627451,47.407848 C94.627451,41.2845368 91.0137255,35.9079708 85.5745098,33.3690369 C89.2068627,28.1791573 89.3745098,21.1224145 85.5745098,15.7271799 C82.5754902,11.4707318 77.6205882,8.93179791 72.2931373,8.93179791 C71.4735294,8.93179791 70.6539216,8.9878038 69.8529412,9.11848423 C68.2882353,5.36608924 65.2147059,2.37910815 61.2284314,0.922954872 C56.2735294,-0.831896516 50.7970588,0.00819191455 47.3137255,2.65913763 C43.5137255,-0.0104767172 38.95,-0.77589062 33.3990196,0.922954872 C29.4127451,2.37910815 26.3205882,5.34742061 24.7745098,9.11848423 C23.9735294,9.00647244 23.1539216,8.93179791 22.3343137,8.93179791 C17.0254902,8.93179791 12.0519608,11.4707318 9.05294118,15.7271799 C5.25294118,21.1224145 5.42058824,28.1791573 9.05294118,33.3690369 C3.61372549,35.9079708 0,41.2658682 0,47.407848 C0,53.8671946 4.09803922,59.4864528 9.94705882,61.8387004 C7.05980392,65.8524562 6.33333333,71.1730163 8.34509804,75.8961801 C11.6235294,82.896917 17.9754902,85.5852 24.4019608,84.8197861 C26.6931373,90.9804346 31.8529412,94.6208178 38.6519608,94.8448414 L38.6519608,94.8448414 C41.7813725,94.8448414 44.7803922,93.9114098 47.295098,92.175227 C49.8098039,93.8927412 52.8088235,94.8448414 55.9382353,94.8448414 C62.2529412,94.8448414 68.3813725,90.6630679 70.1882353,84.8197861 C76.9872549,85.7718863 83.8794118,81.6647873 86.245098,75.8961801 C88.2568627,71.1730163 87.5303922,65.8524562 84.6431373,61.8387004 C90.5294118,59.4677842 94.627451,53.8671946 94.627451,47.407848 Z M44.6872549,42.8527019 C44.6872549,44.7755709 43.122549,46.343736 41.2039216,46.343736 C39.2852941,46.343736 37.7205882,44.7755709 37.7205882,42.8527019 C37.7205882,41.3965486 36.5470588,40.2204248 35.0941176,40.2204248 C33.6411765,40.2204248 32.4676471,41.3965486 32.4676471,42.8527019 C32.4676471,47.6878775 36.3980392,51.6082902 41.2039216,51.6082902 C42.4519608,51.6082902 43.6254902,51.3469293 44.6872549,50.8802135 L44.6872549,87.564075 C42.9735294,88.833542 40.8872549,89.5242813 38.6705882,89.5242813 L38.6705882,89.5242813 C34.0882353,89.4869441 30.5303922,86.9666788 29.245098,82.5795503 L33.7529412,78.5097886 C34.3676471,77.9683983 35.1872549,77.725706 35.9882353,77.8937237 C36.7892157,78.0617414 37.4598039,78.5657945 37.8137255,79.3125397 C38.4470588,80.619344 40.0117647,81.1794029 41.3156863,80.5446694 C42.6196078,79.909936 43.1784314,78.3417709 42.545098,77.0349667 C41.4647059,74.7760622 39.4529412,73.2078971 36.9941176,72.7225127 C34.5352941,72.2371283 32.0764706,72.909199 30.2137255,74.5893759 L25.0539216,79.2378652 C19.9686275,80.6006753 15.2,78.4164454 13.1509804,73.7866247 C11.4558824,69.8288748 12.8343137,65.1990541 16.4107843,62.6601202 C21.2166667,61.3159787 23.6196078,58.6837016 24.1411765,55.0433184 C24.6068627,51.869651 23.3029412,48.7333209 20.7137255,46.8291204 C19.5401961,45.9703634 17.9009804,46.2130556 17.0441176,47.3891794 C16.1872549,48.5653032 16.4294118,50.2081428 17.6029412,51.0668998 C18.627451,51.8136451 19.1117647,53.0084376 18.9254902,54.2592359 C18.795098,56.0514245 17.1558824,57.0221934 14.8460784,57.600921 C9.40686275,57.040862 5.19705882,52.6350649 5.19705882,47.3518421 C5.19705882,43.1140627 7.86078431,39.4363422 11.772549,37.8495085 C13.0764706,41.0605132 16.2058824,43.3380863 19.8754902,43.3380863 C24.7,43.3380863 28.6117647,39.399005 28.6117647,34.582498 C28.6117647,33.1263447 27.4382353,31.9502209 25.9852941,31.9502209 C24.5323529,31.9502209 23.3588235,33.1263447 23.3588235,34.582498 C23.3588235,36.5053671 21.7941176,38.0735321 19.8754902,38.0735321 C17.9568627,38.0735321 16.3921569,36.5053671 16.3921569,34.582498 L15.3862745,32.4916112 C11.0460784,29.0939202 10.1333333,23.1572953 13.2813725,18.714161 C15.2931373,15.8578603 18.6460784,14.1590148 22.2598039,14.1590148 C22.8558824,14.1590148 23.4519608,14.2150207 24.0480392,14.3083639 C24.9980392,18.1167647 28.4254902,20.9543968 32.5235294,20.9543968 C37.3480392,20.9543968 41.2598039,17.0153155 41.2598039,12.1988085 C41.2598039,10.7426552 40.0862745,9.56653139 38.6333333,9.56653139 C37.1803922,9.56653139 36.0068627,10.7426552 36.0068627,12.1988085 C36.0068627,14.1216775 34.4421569,15.6898426 32.5235294,15.6898426 C30.7352941,15.6898426 29.2823529,14.3457011 29.077451,12.6095184 C29.7852941,9.49185686 32.0205882,6.97159157 35.1313725,5.83280503 C38.2980392,4.67534986 41.9676471,5.23540881 44.6127451,7.19561515 L44.6127451,42.8527019 L44.6872549,42.8527019 Z M79.2411765,57.7129328 C76.5215686,57.9369563 75.8882353,60.8492629 77.9372549,62.5294398 C81.6813725,65.0310364 83.1529412,69.7728689 81.4205882,73.8052934 C79.6509804,78.435114 73.6343137,80.619344 69.5176471,79.2565338 L64.3578431,74.6080445 C62.495098,72.9278677 60.0362745,72.2557969 57.577451,72.7411814 C55.1372549,73.2265658 53.1068627,74.7947308 52.0264706,77.0536353 C51.3931373,78.3604395 51.9519608,79.9472732 53.2558824,80.5633381 C54.5598039,81.1794029 56.1431373,80.6380126 56.7578431,79.3312084 C57.1117647,78.5844631 57.7823529,78.0617414 58.5833333,77.9123924 C59.3843137,77.7443747 60.2039216,77.9683983 60.8186275,78.5284572 L65.3264706,82.5982189 C64.3392157,86.649312 60.4647059,89.4309382 55.9009804,89.54295 C53.7029412,89.54295 51.5980392,88.8522106 49.8843137,87.5827436 L49.8843137,57.7316014 C49.8843137,55.8087323 51.4490196,54.2405673 53.3676471,54.2405673 C55.2862745,54.2405673 56.8509804,55.8087323 56.8509804,57.7316014 C56.8509804,59.1877547 58.0245098,60.3638785 59.477451,60.3638785 C60.9303922,60.3638785 62.1039216,59.1877547 62.1039216,57.7316014 C62.1039216,52.8964258 58.1921569,48.9760131 53.3676471,48.9760131 C52.1196078,48.9760131 50.9460784,49.2373739 49.8843137,49.7040897 L49.8843137,7.23295242 C52.5294118,5.27274608 56.1990196,4.71268712 59.3843137,5.8701423 C62.4764706,7.00892883 64.7303922,9.52919413 65.4382353,12.6468556 C65.2333333,14.3830384 63.7803922,15.7271799 61.9921569,15.7271799 C60.0735294,15.7271799 58.5088235,14.1590148 58.5088235,12.2361457 C58.5088235,10.7799925 57.3352941,9.60386865 55.8823529,9.60386865 C54.4294118,9.60386865 53.2558824,10.7799925 53.2558824,12.2361457 C53.2558824,17.0713214 57.1676471,20.991734 61.9921569,20.991734 C66.0901961,20.991734 69.5176471,18.154102 70.4676471,14.3457011 C71.0637255,14.252358 71.6598039,14.1963521 72.2558824,14.1963521 C75.8696078,14.1963521 79.222549,15.8951976 81.2343137,18.7514982 C84.1029412,22.82126 83.5813725,28.0858141 80.1911765,31.5768483 C78.5333333,31.2968188 76.8196078,31.4835051 75.2362745,32.1742445 C71.4176471,33.7424096 68.8843137,38.6149224 70.7098039,43.7114589 C71.5480392,45.7836771 73.1127451,47.5571971 76.4843137,48.5466346 C77.527451,48.5466346 78.5333333,47.9119011 78.9245098,46.8664577 C79.4647059,45.5223162 78.7941176,43.9914884 77.4343137,43.4500981 C76.5588235,43.1140627 75.8882353,42.441992 75.5156863,41.6019035 C74.845098,39.4923481 75.4970588,37.980189 77.322549,37.0094201 C77.9372549,36.7480593 78.6264706,36.6547161 79.2784314,36.7667279 C79.595098,36.9720829 79.9303922,37.1401005 80.3215686,37.2147751 C85.5372549,38.0548635 89.3186275,42.3486488 89.3186275,47.3891794 C89.3745098,52.8404199 84.922549,57.3582288 79.2411765,57.7129328 Z" id="Shape" fill="#000000" fill-rule="nonzero"></path>
    </g>
</svg>