<svg xmlns:dc="http://purl.org/dc/elements/1.1/" xmlns:cc="http://creativecommons.org/ns#" xmlns:rdf="http://www.w3.org/1999/02/22-rdf-syntax-ns#" xmlns:svg="http://www.w3.org/2000/svg" xmlns="http://www.w3.org/2000/svg" xmlns:sodipodi="http://sodipodi.sourceforge.net/DTD/sodipodi-0.dtd" xmlns:inkscape="http://www.inkscape.org/namespaces/inkscape" version="1.1" x="0px" y="0px" viewBox="0 0 100 125"><g transform="translate(0,-952.36218)"><path style="text-indent:0;text-transform:none;direction:ltr;block-progression:tb;baseline-shift:baseline;color:#000000;enable-background:accumulate;" d="m 50,953.36217 c -1.1046,0 -2,0.8954 -2,2 l 0,8 c 0,1.1046 0.8954,2 2,2 1.1046,0 2,-0.8954 2,-2 l 0,-8 c 0,-1.1046 -0.8954,-2 -2,-2 z m -28.2812,11.71875 c -0.5119,0 -1.0157,0.20315 -1.4063,0.59375 -0.781,0.781 -0.781,2.0314 0,2.8125 l 5.6563,5.65625 c 0.7808,0.781 2.0314,0.781 2.8124,0 0.7811,-0.781 0.7811,-2.0314 0,-2.8125 l -5.6562,-5.65625 c -0.3905,-0.3906 -0.8945,-0.59375 -1.4062,-0.59375 z m 56.5624,0 c -0.5117,0 -1.0156,0.20315 -1.4062,0.59375 l -5.6562,5.65625 c -0.7811,0.7811 -0.7811,2.0315 0,2.8125 0.781,0.781 2.0315,0.781 2.8124,0 l 5.6563,-5.65625 c 0.781,-0.7811 0.781,-2.0315 0,-2.8125 -0.3906,-0.3906 -0.8943,-0.59375 -1.4063,-0.59375 z M 50,969.36217 c -13.2296,0 -26,10.28529 -26,24.84375 0,9.18108 3.5737,15.01578 6.875,19.68748 3.3013,4.6717 6.125,8.1036 6.125,13.4688 l 0,12 c 0,3.3944 2.8143,6 6,6 l 1,0 c 0,3.2894 2.7106,6 6,6 3.2894,0 6,-2.7106 6,-6 l 1,0 c 3.1857,0 6,-2.6056 6,-6 l 0,-12 c 0,-5.3652 2.8237,-8.7971 6.125,-13.4688 C 72.4263,1009.2217 76,1003.387 76,994.20592 76,979.64746 63.2296,969.36217 50,969.36217 z m 0,4 c 11.1608,0 22,8.63761 22,20.84375 0,8.18278 -2.9263,12.84858 -6.125,17.37498 -2.8723,4.0645 -6.1151,8.0875 -6.75,13.7813 l -18.25,0 c -0.6349,-5.6938 -3.8777,-9.7168 -6.75,-13.7813 C 30.9263,1007.0545 28,1002.3887 28,994.20592 28,981.99978 38.8392,973.36217 50,973.36217 z m -2.2188,3.125 C 38.3394,977.58847 31,985.64483 31,995.36217 c 0,1.94221 0.3015,3.79716 0.8438,5.56253 0.2239,1.085 1.471,1.8215 2.5312,1.5 1.0602,-0.3216 1.6978,-1.6296 1.2812,-2.65628 C 35.2279,998.37356 35,996.89836 35,995.36217 c 0,-7.71346 5.7588,-14.03615 13.2188,-14.90625 1.0471,-0.0818 1.9255,-1.10905 1.8437,-2.15625 -0.033,-1.37794 -1.2025,-1.88949 -2.2813,-1.8125 z m -37.7812001,16.875 c -1.1046,0 -2.0000001,0.8954 -2.0000001,2 0,1.1046 0.8954001,2 2.0000001,2 l 8.0000001,0 c 1.1046,0 2,-0.8954 2,-2 0,-1.1046 -0.8954,-2 -2,-2 l -8.0000001,0 z m 72.0000001,0 c -1.1046,0 -2,0.8954 -2,2 0,1.1046 0.8954,2 2,2 l 8,0 c 1.1046,0 2,-0.8954 2,-2 0,-1.1046 -0.8954,-2 -2,-2 l -8,0 z m -41,36.00003 18,0 0,4 -18,0 0,-4 z m 0,8 18,0 0,2 c 0,1.2018 -0.9647,2 -2,2 l -14,0 c -1.0353,0 -2,-0.7982 -2,-2 l 0,-2 z m 7,8 4,0 c 0,1.1426 -0.8574,2 -2,2 -1.1426,0 -2,-0.8574 -2,-2 z" fill="#000000" fill-opacity="1" stroke="none" marker="none" visibility="visible" display="inline" overflow="visible"/></g></svg>