<svg xmlns="http://www.w3.org/2000/svg" xmlns:xlink="http://www.w3.org/1999/xlink" version="1.1" x="0px" y="0px" viewBox="0 0 100 125" enable-background="new 0 0 100 100" xml:space="preserve"><path d="M29.051,64.088c0,1.934,0.979,3.637,2.47,4.643v8.566c0,1.727,1.399,3.127,3.127,3.127c1.727,0,3.125-1.4,3.125-3.127V68.73  c1.491-1.004,2.472-2.709,2.472-4.643c0-3.09-2.505-5.596-5.597-5.596S29.051,60.998,29.051,64.088z M80.879,23.721H56.916V10.3  c0-4.438-3.611-8.05-8.05-8.05H20.431c-4.439,0-8.051,3.611-8.051,8.05v79.399c0,4.439,3.611,8.051,8.051,8.051h28.435  c4.439,0,8.05-3.611,8.05-8.051V37.2h23.963c3.717,0,6.74-3.023,6.74-6.74C87.619,26.744,84.596,23.721,80.879,23.721z   M52.916,89.699c0,2.234-1.816,4.051-4.05,4.051H20.431c-2.233,0-4.051-1.816-4.051-4.051V10.3c0-2.233,1.817-4.05,4.051-4.05  h28.435c2.234,0,4.05,1.817,4.05,4.05v13.421H33.791c-3.716,0-6.739,3.023-6.739,6.738c0,3.717,3.023,6.74,6.739,6.74h19.125V89.699  z M80.879,33.2H33.791c-1.51,0-2.739-1.229-2.739-2.74c0-1.51,1.229-2.738,2.739-2.738h47.088c1.512,0,2.74,1.229,2.74,2.738  C83.619,31.97,82.391,33.2,80.879,33.2z"/></svg>