<svg xmlns="http://www.w3.org/2000/svg" xmlns:xlink="http://www.w3.org/1999/xlink" version="1.1" x="0px" y="0px" viewBox="0 0 100 125" enable-background="new 0 0 100 100" xml:space="preserve"><path d="M91.24,67.483l-16.85-8.532l15.95-8.246c0.508-0.264,0.508-0.688-0.003-0.945l-17.988-9.107l18.912-9.778  c0.919-0.477,1.464-1.323,1.459-2.264c-0.006-0.939-0.561-1.777-1.48-2.241L54.356,7.698C53.673,7.353,52.96,7.28,52.481,7.28  c-0.44,0-1.098,0.062-1.735,0.36L8.818,27.269c-0.954,0.447-1.529,1.283-1.538,2.235c-0.009,0.953,0.552,1.8,1.499,2.266  l20.139,9.903L9.667,50.685c-0.514,0.241-0.516,0.643-0.005,0.894l17.094,8.406L8.818,68.381c-0.955,0.447-1.53,1.283-1.538,2.235  c-0.008,0.953,0.553,1.8,1.499,2.264l39.554,19.452c0.651,0.321,1.327,0.388,1.779,0.388c0.476,0,1.186-0.073,1.872-0.425  l39.279-20.308c0.919-0.477,1.464-1.323,1.459-2.264C92.714,68.785,92.16,67.946,91.24,67.483z M52.375,11.289  c0.01-0.002,0.049-0.009,0.106-0.009c0.061,0,0.106,0.008,0.082-0.006l34.309,17.368L50.215,47.6c-0.01,0.002-0.048,0.01-0.103,0.01  l-0.014,0.021L13.353,29.562L52.375,11.289z M50.22,88.71c-0.011,0.003-0.051,0.01-0.109,0.01l-0.012,0.023l-36.744-18.07  l17.375-8.134l17.601,8.655c0.652,0.321,1.328,0.389,1.78,0.389c0.477,0,1.188-0.074,1.87-0.426l18.634-9.633l16.255,8.23  L50.22,88.71z"/></svg>