<svg xmlns="http://www.w3.org/2000/svg" viewBox="0 0 100 125" x="0px" y="0px"><title>•SET10-v2</title><path d="M61.32,93.73H38.68a10.51,10.51,0,0,1-10.5-10.5V16.65a10.51,10.51,0,0,1,10.5-10.5H61.32a10.51,10.51,0,0,1,10.5,10.5V83.23A10.51,10.51,0,0,1,61.32,93.73ZM38.68,9.55a7.11,7.11,0,0,0-7.1,7.1V83.23a7.11,7.11,0,0,0,7.1,7.1H61.32a7.11,7.11,0,0,0,7.1-7.1V16.65a7.11,7.11,0,0,0-7.1-7.1Z"/><circle cx="50" cy="50.2" r="2.33"/><path d="M50,40.93a9.28,9.28,0,1,0,9.27,9.27A9.28,9.28,0,0,0,50,40.93Zm0,15.15a5.88,5.88,0,1,1,5.87-5.88A5.88,5.88,0,0,1,50,56.08Z"/><path d="M50,34.4A15.81,15.81,0,1,0,65.81,50.2,15.82,15.82,0,0,0,50,34.4Zm0,28.21A12.41,12.41,0,1,1,62.41,50.2,12.42,12.42,0,0,1,50,62.61Z"/></svg>