<svg xmlns="http://www.w3.org/2000/svg" xmlns:xlink="http://www.w3.org/1999/xlink" version="1.2" baseProfile="tiny" x="0px" y="0px" viewBox="0 0 100 125" xml:space="preserve"><path d="M77.5,5h-55C18.364,5,15,8.364,15,12.5v75c0,4.136,3.364,7.5,7.5,7.5h55c4.136,0,7.5-3.364,7.5-7.5v-75  C85,8.364,81.636,5,77.5,5z M80,87.5c0,1.378-1.122,2.5-2.5,2.5h-55c-1.378,0-2.5-1.122-2.5-2.5v-75c0-1.378,1.122-2.5,2.5-2.5h55  c1.378,0,2.5,1.122,2.5,2.5V87.5z"/><path d="M50,40c-12.407,0-22.5,10.093-22.5,22.5S37.593,85,50,85s22.5-10.093,22.5-22.5S62.407,40,50,40z M50,80  c-9.649,0-17.5-7.851-17.5-17.5S40.351,45,50,45s17.5,7.851,17.5,17.5S59.649,80,50,80z"/><path d="M50,35c5.514,0,10-4.486,10-10s-4.486-10-10-10s-10,4.486-10,10S44.486,35,50,35z M50,20  c2.757,0,5,2.243,5,5s-2.243,5-5,5s-5-2.243-5-5S47.243,20,50,20z"/><path d="M50,57.5c-2.757,0-5,2.243-5,5s2.243,5,5,5s5-2.243,5-5S52.757,57.5,50,57.5z"/><circle cx="27.5" cy="17.5" r="2.5"/><circle cx="72.5" cy="17.5" r="2.5"/><circle cx="72.5" cy="82.5" r="2.5"/><circle cx="27.5" cy="82.5" r="2.5"/></svg>